<mxfile host="Electron" modified="2024-07-26T14:46:01.164Z" agent="Mozilla/5.0 (Windows NT 10.0; Win64; x64) AppleWebKit/537.36 (KHTML, like Gecko) draw.io/24.6.4 Chrome/124.0.6367.207 Electron/30.0.6 Safari/537.36" etag="pBOYojeJefksuSbbfn_K" version="24.6.4" type="device">
  <diagram id="C5RBs43oDa-KdzZeNtuy" name="Page-1">
    <mxGraphModel dx="6801" dy="2630" grid="1" gridSize="10" guides="1" tooltips="1" connect="1" arrows="1" fold="1" page="1" pageScale="1" pageWidth="827" pageHeight="1169" math="0" shadow="0">
      <root>
        <mxCell id="WIyWlLk6GJQsqaUBKTNV-0" />
        <mxCell id="WIyWlLk6GJQsqaUBKTNV-1" parent="WIyWlLk6GJQsqaUBKTNV-0" />
        <mxCell id="WIyWlLk6GJQsqaUBKTNV-2" value="" style="rounded=0;html=1;jettySize=auto;orthogonalLoop=1;fontSize=11;endArrow=block;endFill=0;endSize=8;strokeWidth=1;shadow=0;labelBackgroundColor=none;edgeStyle=orthogonalEdgeStyle;" parent="WIyWlLk6GJQsqaUBKTNV-1" source="WIyWlLk6GJQsqaUBKTNV-3" target="WIyWlLk6GJQsqaUBKTNV-6" edge="1">
          <mxGeometry relative="1" as="geometry" />
        </mxCell>
        <mxCell id="WIyWlLk6GJQsqaUBKTNV-3" value="Start" style="rounded=1;whiteSpace=wrap;html=1;fontSize=12;glass=0;strokeWidth=1;shadow=0;" parent="WIyWlLk6GJQsqaUBKTNV-1" vertex="1">
          <mxGeometry x="-600" y="100" width="120" height="40" as="geometry" />
        </mxCell>
        <mxCell id="WIyWlLk6GJQsqaUBKTNV-5" value="No" style="edgeStyle=orthogonalEdgeStyle;rounded=0;html=1;jettySize=auto;orthogonalLoop=1;fontSize=11;endArrow=block;endFill=0;endSize=8;strokeWidth=1;shadow=0;labelBackgroundColor=none;entryX=1;entryY=0.5;entryDx=0;entryDy=0;exitX=1;exitY=0.5;exitDx=0;exitDy=0;" parent="WIyWlLk6GJQsqaUBKTNV-1" source="WIyWlLk6GJQsqaUBKTNV-6" target="MfT9FiDQWY_UEhDtYRqd-1" edge="1">
          <mxGeometry y="10" relative="1" as="geometry">
            <mxPoint as="offset" />
            <mxPoint x="-820" y="330" as="sourcePoint" />
            <mxPoint x="-795" y="1160" as="targetPoint" />
            <Array as="points">
              <mxPoint x="960" y="330" />
              <mxPoint x="960" y="1900" />
            </Array>
          </mxGeometry>
        </mxCell>
        <mxCell id="WIyWlLk6GJQsqaUBKTNV-6" value="Do you wanna start game?" style="rhombus;whiteSpace=wrap;html=1;shadow=0;fontFamily=Helvetica;fontSize=12;align=center;strokeWidth=1;spacing=6;spacingTop=-4;" parent="WIyWlLk6GJQsqaUBKTNV-1" vertex="1">
          <mxGeometry x="-595" y="280" width="110" height="100" as="geometry" />
        </mxCell>
        <mxCell id="MfT9FiDQWY_UEhDtYRqd-1" value="Finish" style="rounded=1;whiteSpace=wrap;html=1;" parent="WIyWlLk6GJQsqaUBKTNV-1" vertex="1">
          <mxGeometry x="-1040" y="1870" width="120" height="60" as="geometry" />
        </mxCell>
        <mxCell id="MfT9FiDQWY_UEhDtYRqd-2" value="Yes" style="endArrow=classic;html=1;rounded=0;exitX=0;exitY=0.5;exitDx=0;exitDy=0;entryX=0.5;entryY=0;entryDx=0;entryDy=0;" parent="WIyWlLk6GJQsqaUBKTNV-1" source="WIyWlLk6GJQsqaUBKTNV-6" target="MfT9FiDQWY_UEhDtYRqd-4" edge="1">
          <mxGeometry x="-0.6" y="-20" width="50" height="50" relative="1" as="geometry">
            <mxPoint x="-430" y="570" as="sourcePoint" />
            <mxPoint x="-600" y="430" as="targetPoint" />
            <Array as="points">
              <mxPoint x="-740" y="330" />
              <mxPoint x="-740" y="400" />
              <mxPoint x="-540" y="400" />
            </Array>
            <mxPoint as="offset" />
          </mxGeometry>
        </mxCell>
        <mxCell id="MfT9FiDQWY_UEhDtYRqd-13" value="Voyaka&lt;div&gt;&lt;br&gt;&lt;/div&gt;" style="edgeStyle=orthogonalEdgeStyle;rounded=0;orthogonalLoop=1;jettySize=auto;html=1;" parent="WIyWlLk6GJQsqaUBKTNV-1" source="MfT9FiDQWY_UEhDtYRqd-4" target="MfT9FiDQWY_UEhDtYRqd-11" edge="1">
          <mxGeometry x="0.0169" y="-15" relative="1" as="geometry">
            <mxPoint as="offset" />
          </mxGeometry>
        </mxCell>
        <mxCell id="MfT9FiDQWY_UEhDtYRqd-15" value="Chinusha" style="edgeStyle=orthogonalEdgeStyle;rounded=0;orthogonalLoop=1;jettySize=auto;html=1;exitX=1;exitY=0.5;exitDx=0;exitDy=0;" parent="WIyWlLk6GJQsqaUBKTNV-1" source="MfT9FiDQWY_UEhDtYRqd-4" target="MfT9FiDQWY_UEhDtYRqd-14" edge="1">
          <mxGeometry x="0.0169" y="15" relative="1" as="geometry">
            <mxPoint as="offset" />
          </mxGeometry>
        </mxCell>
        <mxCell id="MfT9FiDQWY_UEhDtYRqd-4" value="&lt;span style=&quot;&quot;&gt;&lt;span style=&quot;font-family: Helvetica; font-size: 12px; font-style: normal; font-variant-ligatures: normal; font-variant-caps: normal; font-weight: 400; letter-spacing: normal; orphans: 2; text-align: center; text-indent: 0px; text-transform: none; widows: 2; word-spacing: 0px; -webkit-text-stroke-width: 0px; white-space: normal; text-decoration-thickness: initial; text-decoration-style: initial; text-decoration-color: initial; float: none; display: inline !important;&quot;&gt;Chose your tamagoji&lt;/span&gt;&lt;br&gt;&lt;/span&gt;" style="rhombus;whiteSpace=wrap;html=1;fontColor=default;labelBackgroundColor=default;" parent="WIyWlLk6GJQsqaUBKTNV-1" vertex="1">
          <mxGeometry x="-630" y="430" width="180" height="60" as="geometry" />
        </mxCell>
        <mxCell id="MfT9FiDQWY_UEhDtYRqd-19" style="edgeStyle=orthogonalEdgeStyle;rounded=0;orthogonalLoop=1;jettySize=auto;html=1;entryX=0.5;entryY=0;entryDx=0;entryDy=0;" parent="WIyWlLk6GJQsqaUBKTNV-1" source="MfT9FiDQWY_UEhDtYRqd-7" target="MfT9FiDQWY_UEhDtYRqd-18" edge="1">
          <mxGeometry relative="1" as="geometry" />
        </mxCell>
        <mxCell id="MfT9FiDQWY_UEhDtYRqd-7" value="Call your Ment" style="rounded=1;whiteSpace=wrap;html=1;" parent="WIyWlLk6GJQsqaUBKTNV-1" vertex="1">
          <mxGeometry x="-600" y="530" width="120" height="60" as="geometry" />
        </mxCell>
        <mxCell id="MfT9FiDQWY_UEhDtYRqd-8" value="Ment&lt;div&gt;&lt;br&gt;&lt;/div&gt;" style="endArrow=classic;html=1;rounded=0;exitX=0.5;exitY=1;exitDx=0;exitDy=0;entryX=0.5;entryY=0;entryDx=0;entryDy=0;" parent="WIyWlLk6GJQsqaUBKTNV-1" source="MfT9FiDQWY_UEhDtYRqd-4" target="MfT9FiDQWY_UEhDtYRqd-7" edge="1">
          <mxGeometry x="0.0097" y="21" width="50" height="50" relative="1" as="geometry">
            <mxPoint x="-540" y="540" as="sourcePoint" />
            <mxPoint x="-540" y="570" as="targetPoint" />
            <mxPoint as="offset" />
          </mxGeometry>
        </mxCell>
        <mxCell id="MfT9FiDQWY_UEhDtYRqd-21" style="edgeStyle=orthogonalEdgeStyle;rounded=0;orthogonalLoop=1;jettySize=auto;html=1;entryX=0.5;entryY=0;entryDx=0;entryDy=0;" parent="WIyWlLk6GJQsqaUBKTNV-1" source="MfT9FiDQWY_UEhDtYRqd-11" target="MfT9FiDQWY_UEhDtYRqd-20" edge="1">
          <mxGeometry relative="1" as="geometry" />
        </mxCell>
        <mxCell id="MfT9FiDQWY_UEhDtYRqd-11" value="Call your Voyaka" style="rounded=1;whiteSpace=wrap;html=1;" parent="WIyWlLk6GJQsqaUBKTNV-1" vertex="1">
          <mxGeometry x="-1345" y="530" width="120" height="60" as="geometry" />
        </mxCell>
        <mxCell id="MfT9FiDQWY_UEhDtYRqd-17" style="edgeStyle=orthogonalEdgeStyle;rounded=0;orthogonalLoop=1;jettySize=auto;html=1;entryX=0.5;entryY=0;entryDx=0;entryDy=0;" parent="WIyWlLk6GJQsqaUBKTNV-1" source="MfT9FiDQWY_UEhDtYRqd-14" target="MfT9FiDQWY_UEhDtYRqd-16" edge="1">
          <mxGeometry relative="1" as="geometry" />
        </mxCell>
        <mxCell id="MfT9FiDQWY_UEhDtYRqd-14" value="Call your Chinusha&lt;div&gt;&lt;br&gt;&lt;/div&gt;" style="rounded=1;whiteSpace=wrap;html=1;" parent="WIyWlLk6GJQsqaUBKTNV-1" vertex="1">
          <mxGeometry x="180" y="570" width="120" height="60" as="geometry" />
        </mxCell>
        <mxCell id="MfT9FiDQWY_UEhDtYRqd-38" style="edgeStyle=orthogonalEdgeStyle;rounded=0;orthogonalLoop=1;jettySize=auto;html=1;" parent="WIyWlLk6GJQsqaUBKTNV-1" source="MfT9FiDQWY_UEhDtYRqd-16" target="MfT9FiDQWY_UEhDtYRqd-36" edge="1">
          <mxGeometry relative="1" as="geometry" />
        </mxCell>
        <mxCell id="MfT9FiDQWY_UEhDtYRqd-16" value="string name" style="rounded=1;whiteSpace=wrap;html=1;" parent="WIyWlLk6GJQsqaUBKTNV-1" vertex="1">
          <mxGeometry x="205" y="660" width="70" height="20" as="geometry" />
        </mxCell>
        <mxCell id="MfT9FiDQWY_UEhDtYRqd-35" style="edgeStyle=orthogonalEdgeStyle;rounded=0;orthogonalLoop=1;jettySize=auto;html=1;" parent="WIyWlLk6GJQsqaUBKTNV-1" source="MfT9FiDQWY_UEhDtYRqd-18" target="MfT9FiDQWY_UEhDtYRqd-34" edge="1">
          <mxGeometry relative="1" as="geometry" />
        </mxCell>
        <mxCell id="MfT9FiDQWY_UEhDtYRqd-18" value="string name" style="rounded=1;whiteSpace=wrap;html=1;" parent="WIyWlLk6GJQsqaUBKTNV-1" vertex="1">
          <mxGeometry x="-575" y="620" width="70" height="20" as="geometry" />
        </mxCell>
        <mxCell id="MfT9FiDQWY_UEhDtYRqd-23" style="edgeStyle=orthogonalEdgeStyle;rounded=0;orthogonalLoop=1;jettySize=auto;html=1;entryX=0.5;entryY=0;entryDx=0;entryDy=0;" parent="WIyWlLk6GJQsqaUBKTNV-1" source="MfT9FiDQWY_UEhDtYRqd-20" target="MfT9FiDQWY_UEhDtYRqd-24" edge="1">
          <mxGeometry relative="1" as="geometry">
            <mxPoint x="-1160" y="710" as="targetPoint" />
          </mxGeometry>
        </mxCell>
        <mxCell id="MfT9FiDQWY_UEhDtYRqd-20" value="string name" style="rounded=1;whiteSpace=wrap;html=1;" parent="WIyWlLk6GJQsqaUBKTNV-1" vertex="1">
          <mxGeometry x="-1320" y="620" width="70" height="20" as="geometry" />
        </mxCell>
        <mxCell id="MfT9FiDQWY_UEhDtYRqd-29" value="Navy" style="edgeStyle=orthogonalEdgeStyle;rounded=0;orthogonalLoop=1;jettySize=auto;html=1;exitX=0.5;exitY=1;exitDx=0;exitDy=0;" parent="WIyWlLk6GJQsqaUBKTNV-1" source="MfT9FiDQWY_UEhDtYRqd-24" target="MfT9FiDQWY_UEhDtYRqd-26" edge="1">
          <mxGeometry relative="1" as="geometry">
            <mxPoint x="-1285" y="760" as="sourcePoint" />
          </mxGeometry>
        </mxCell>
        <mxCell id="MfT9FiDQWY_UEhDtYRqd-30" value="Air Force" style="edgeStyle=orthogonalEdgeStyle;rounded=0;orthogonalLoop=1;jettySize=auto;html=1;entryX=0.5;entryY=0;entryDx=0;entryDy=0;" parent="WIyWlLk6GJQsqaUBKTNV-1" source="MfT9FiDQWY_UEhDtYRqd-24" target="MfT9FiDQWY_UEhDtYRqd-27" edge="1">
          <mxGeometry x="0.0316" y="-10" relative="1" as="geometry">
            <mxPoint x="-1550" y="860" as="targetPoint" />
            <mxPoint as="offset" />
          </mxGeometry>
        </mxCell>
        <mxCell id="MfT9FiDQWY_UEhDtYRqd-31" value="Earth Force" style="edgeStyle=orthogonalEdgeStyle;rounded=0;orthogonalLoop=1;jettySize=auto;html=1;exitX=1;exitY=0.5;exitDx=0;exitDy=0;entryX=0.5;entryY=0;entryDx=0;entryDy=0;" parent="WIyWlLk6GJQsqaUBKTNV-1" source="MfT9FiDQWY_UEhDtYRqd-24" target="MfT9FiDQWY_UEhDtYRqd-28" edge="1">
          <mxGeometry x="-0.0105" y="10" relative="1" as="geometry">
            <mxPoint as="offset" />
          </mxGeometry>
        </mxCell>
        <mxCell id="TEwRUmldk3uiszt5Wf8D-6" style="edgeStyle=orthogonalEdgeStyle;rounded=0;orthogonalLoop=1;jettySize=auto;html=1;exitX=0.5;exitY=1;exitDx=0;exitDy=0;entryX=0.5;entryY=0;entryDx=0;entryDy=0;" parent="WIyWlLk6GJQsqaUBKTNV-1" source="MfT9FiDQWY_UEhDtYRqd-26" target="TEwRUmldk3uiszt5Wf8D-2" edge="1">
          <mxGeometry relative="1" as="geometry" />
        </mxCell>
        <mxCell id="MfT9FiDQWY_UEhDtYRqd-26" value="int Health = 50&lt;div&gt;int Mood = 75&lt;/div&gt;" style="rounded=1;whiteSpace=wrap;html=1;" parent="WIyWlLk6GJQsqaUBKTNV-1" vertex="1">
          <mxGeometry x="-1345" y="850" width="120" height="60" as="geometry" />
        </mxCell>
        <mxCell id="TEwRUmldk3uiszt5Wf8D-7" style="edgeStyle=orthogonalEdgeStyle;rounded=0;orthogonalLoop=1;jettySize=auto;html=1;exitX=0.5;exitY=1;exitDx=0;exitDy=0;entryX=0.5;entryY=0;entryDx=0;entryDy=0;" parent="WIyWlLk6GJQsqaUBKTNV-1" source="MfT9FiDQWY_UEhDtYRqd-27" target="TEwRUmldk3uiszt5Wf8D-3" edge="1">
          <mxGeometry relative="1" as="geometry" />
        </mxCell>
        <mxCell id="MfT9FiDQWY_UEhDtYRqd-27" value="int Health = 75&lt;div&gt;int Mood = 50&lt;/div&gt;" style="rounded=1;whiteSpace=wrap;html=1;" parent="WIyWlLk6GJQsqaUBKTNV-1" vertex="1">
          <mxGeometry x="-1815" y="850" width="120" height="60" as="geometry" />
        </mxCell>
        <mxCell id="TEwRUmldk3uiszt5Wf8D-5" style="edgeStyle=orthogonalEdgeStyle;rounded=0;orthogonalLoop=1;jettySize=auto;html=1;exitX=0.5;exitY=1;exitDx=0;exitDy=0;entryX=0.5;entryY=0;entryDx=0;entryDy=0;" parent="WIyWlLk6GJQsqaUBKTNV-1" source="MfT9FiDQWY_UEhDtYRqd-28" target="TEwRUmldk3uiszt5Wf8D-4" edge="1">
          <mxGeometry relative="1" as="geometry" />
        </mxCell>
        <mxCell id="MfT9FiDQWY_UEhDtYRqd-28" value="int Heath =50&lt;div&gt;int Mood = 50&lt;/div&gt;" style="rounded=1;whiteSpace=wrap;html=1;" parent="WIyWlLk6GJQsqaUBKTNV-1" vertex="1">
          <mxGeometry x="-820" y="850" width="120" height="60" as="geometry" />
        </mxCell>
        <mxCell id="MfT9FiDQWY_UEhDtYRqd-34" value="int Health = 65&lt;div&gt;int Mood = 65&lt;/div&gt;" style="rounded=1;whiteSpace=wrap;html=1;" parent="WIyWlLk6GJQsqaUBKTNV-1" vertex="1">
          <mxGeometry x="-600" y="680" width="120" height="60" as="geometry" />
        </mxCell>
        <mxCell id="MfT9FiDQWY_UEhDtYRqd-42" value="Moskovskay Oblast&#39;" style="edgeStyle=orthogonalEdgeStyle;rounded=0;orthogonalLoop=1;jettySize=auto;html=1;exitX=0;exitY=0.5;exitDx=0;exitDy=0;entryX=0.5;entryY=0;entryDx=0;entryDy=0;" parent="WIyWlLk6GJQsqaUBKTNV-1" source="MfT9FiDQWY_UEhDtYRqd-36" target="MfT9FiDQWY_UEhDtYRqd-39" edge="1">
          <mxGeometry x="-0.0278" y="-15" relative="1" as="geometry">
            <mxPoint as="offset" />
          </mxGeometry>
        </mxCell>
        <mxCell id="MfT9FiDQWY_UEhDtYRqd-43" style="edgeStyle=orthogonalEdgeStyle;rounded=0;orthogonalLoop=1;jettySize=auto;html=1;exitX=0.5;exitY=1;exitDx=0;exitDy=0;" parent="WIyWlLk6GJQsqaUBKTNV-1" source="MfT9FiDQWY_UEhDtYRqd-36" target="MfT9FiDQWY_UEhDtYRqd-40" edge="1">
          <mxGeometry relative="1" as="geometry" />
        </mxCell>
        <mxCell id="MfT9FiDQWY_UEhDtYRqd-45" value="&#xa;&lt;span style=&quot;font-family: Helvetica; font-size: 11px; font-style: normal; font-variant-ligatures: normal; font-variant-caps: normal; font-weight: 400; letter-spacing: normal; orphans: 2; text-align: center; text-indent: 0px; text-transform: none; widows: 2; word-spacing: 0px; -webkit-text-stroke-width: 0px; white-space: nowrap; text-decoration-thickness: initial; text-decoration-style: initial; text-decoration-color: initial; float: none; display: inline !important;&quot;&gt;Stavrapolsky&#39; kray&#39;&lt;/span&gt;&#xa;&#xa;" style="edgeLabel;html=1;align=center;verticalAlign=middle;resizable=0;points=[];labelBackgroundColor=none;fontColor=#F7F7F7;" parent="MfT9FiDQWY_UEhDtYRqd-43" vertex="1" connectable="0">
          <mxGeometry x="0.2" y="4" relative="1" as="geometry">
            <mxPoint x="56" y="-6" as="offset" />
          </mxGeometry>
        </mxCell>
        <mxCell id="MfT9FiDQWY_UEhDtYRqd-36" value="Chose Oblast&#39;" style="rhombus;whiteSpace=wrap;html=1;" parent="WIyWlLk6GJQsqaUBKTNV-1" vertex="1">
          <mxGeometry x="110" y="730" width="260" height="50" as="geometry" />
        </mxCell>
        <mxCell id="HLICxz_2NMAobXMxXnJd-62" style="edgeStyle=orthogonalEdgeStyle;rounded=0;orthogonalLoop=1;jettySize=auto;html=1;exitX=0.5;exitY=1;exitDx=0;exitDy=0;entryX=0.5;entryY=0;entryDx=0;entryDy=0;" edge="1" parent="WIyWlLk6GJQsqaUBKTNV-1" source="MfT9FiDQWY_UEhDtYRqd-39" target="HLICxz_2NMAobXMxXnJd-50">
          <mxGeometry relative="1" as="geometry" />
        </mxCell>
        <mxCell id="MfT9FiDQWY_UEhDtYRqd-39" value="int Health = 50&lt;div&gt;int Mood = 50&lt;/div&gt;&lt;div&gt;iny Rollback = 5&lt;/div&gt;&lt;div&gt;int Banya = 3&lt;/div&gt;" style="rounded=1;whiteSpace=wrap;html=1;" parent="WIyWlLk6GJQsqaUBKTNV-1" vertex="1">
          <mxGeometry x="-260" y="840" width="120" height="90" as="geometry" />
        </mxCell>
        <mxCell id="HLICxz_2NMAobXMxXnJd-75" style="edgeStyle=orthogonalEdgeStyle;rounded=0;orthogonalLoop=1;jettySize=auto;html=1;exitX=0.5;exitY=1;exitDx=0;exitDy=0;entryX=0.5;entryY=0;entryDx=0;entryDy=0;" edge="1" parent="WIyWlLk6GJQsqaUBKTNV-1" source="MfT9FiDQWY_UEhDtYRqd-40" target="HLICxz_2NMAobXMxXnJd-63">
          <mxGeometry relative="1" as="geometry" />
        </mxCell>
        <mxCell id="MfT9FiDQWY_UEhDtYRqd-40" value="&lt;br&gt;&lt;span style=&quot;font-family: Helvetica; font-size: 12px; font-style: normal; font-variant-ligatures: normal; font-variant-caps: normal; font-weight: 400; letter-spacing: normal; orphans: 2; text-align: center; text-indent: 0px; text-transform: none; widows: 2; word-spacing: 0px; -webkit-text-stroke-width: 0px; white-space: normal; text-decoration-thickness: initial; text-decoration-style: initial; text-decoration-color: initial; float: none; display: inline !important;&quot;&gt;int Health = 50&lt;/span&gt;&lt;div style=&quot;forced-color-adjust: none; font-family: Helvetica; font-size: 12px; font-style: normal; font-variant-ligatures: normal; font-variant-caps: normal; font-weight: 400; letter-spacing: normal; orphans: 2; text-align: center; text-indent: 0px; text-transform: none; widows: 2; word-spacing: 0px; -webkit-text-stroke-width: 0px; white-space: normal; text-decoration-thickness: initial; text-decoration-style: initial; text-decoration-color: initial;&quot;&gt;int Mood = 50&lt;/div&gt;&lt;div style=&quot;forced-color-adjust: none; font-family: Helvetica; font-size: 12px; font-style: normal; font-variant-ligatures: normal; font-variant-caps: normal; font-weight: 400; letter-spacing: normal; orphans: 2; text-align: center; text-indent: 0px; text-transform: none; widows: 2; word-spacing: 0px; -webkit-text-stroke-width: 0px; white-space: normal; text-decoration-thickness: initial; text-decoration-style: initial; text-decoration-color: initial;&quot;&gt;iny Rollback = 3&lt;/div&gt;&lt;div style=&quot;forced-color-adjust: none; font-family: Helvetica; font-size: 12px; font-style: normal; font-variant-ligatures: normal; font-variant-caps: normal; font-weight: 400; letter-spacing: normal; orphans: 2; text-align: center; text-indent: 0px; text-transform: none; widows: 2; word-spacing: 0px; -webkit-text-stroke-width: 0px; white-space: normal; text-decoration-thickness: initial; text-decoration-style: initial; text-decoration-color: initial;&quot;&gt;int Banya = 5&lt;/div&gt;&lt;div&gt;&lt;br&gt;&lt;/div&gt;" style="rounded=1;whiteSpace=wrap;html=1;fontColor=default;labelBackgroundColor=none;" parent="WIyWlLk6GJQsqaUBKTNV-1" vertex="1">
          <mxGeometry x="180" y="840" width="120" height="90" as="geometry" />
        </mxCell>
        <mxCell id="HLICxz_2NMAobXMxXnJd-89" style="edgeStyle=orthogonalEdgeStyle;rounded=0;orthogonalLoop=1;jettySize=auto;html=1;exitX=0.5;exitY=1;exitDx=0;exitDy=0;entryX=0.5;entryY=0;entryDx=0;entryDy=0;" edge="1" parent="WIyWlLk6GJQsqaUBKTNV-1" source="MfT9FiDQWY_UEhDtYRqd-41" target="HLICxz_2NMAobXMxXnJd-76">
          <mxGeometry relative="1" as="geometry" />
        </mxCell>
        <mxCell id="MfT9FiDQWY_UEhDtYRqd-41" value="&lt;br&gt;&lt;span style=&quot;font-family: Helvetica; font-size: 12px; font-style: normal; font-variant-ligatures: normal; font-variant-caps: normal; font-weight: 400; letter-spacing: normal; orphans: 2; text-align: center; text-indent: 0px; text-transform: none; widows: 2; word-spacing: 0px; -webkit-text-stroke-width: 0px; white-space: normal; text-decoration-thickness: initial; text-decoration-style: initial; text-decoration-color: initial; float: none; display: inline !important;&quot;&gt;int Health = 50&lt;/span&gt;&lt;div style=&quot;forced-color-adjust: none; font-family: Helvetica; font-size: 12px; font-style: normal; font-variant-ligatures: normal; font-variant-caps: normal; font-weight: 400; letter-spacing: normal; orphans: 2; text-align: center; text-indent: 0px; text-transform: none; widows: 2; word-spacing: 0px; -webkit-text-stroke-width: 0px; white-space: normal; text-decoration-thickness: initial; text-decoration-style: initial; text-decoration-color: initial;&quot;&gt;int Mood = 50&lt;/div&gt;&lt;div style=&quot;forced-color-adjust: none; font-family: Helvetica; font-size: 12px; font-style: normal; font-variant-ligatures: normal; font-variant-caps: normal; font-weight: 400; letter-spacing: normal; orphans: 2; text-align: center; text-indent: 0px; text-transform: none; widows: 2; word-spacing: 0px; -webkit-text-stroke-width: 0px; white-space: normal; text-decoration-thickness: initial; text-decoration-style: initial; text-decoration-color: initial;&quot;&gt;iny Rollback = 3&lt;/div&gt;&lt;div style=&quot;forced-color-adjust: none; font-family: Helvetica; font-size: 12px; font-style: normal; font-variant-ligatures: normal; font-variant-caps: normal; font-weight: 400; letter-spacing: normal; orphans: 2; text-align: center; text-indent: 0px; text-transform: none; widows: 2; word-spacing: 0px; -webkit-text-stroke-width: 0px; white-space: normal; text-decoration-thickness: initial; text-decoration-style: initial; text-decoration-color: initial;&quot;&gt;int Banya = 3&lt;/div&gt;&lt;div&gt;&lt;br&gt;&lt;/div&gt;" style="rounded=1;whiteSpace=wrap;html=1;labelBackgroundColor=default;fontColor=default;" parent="WIyWlLk6GJQsqaUBKTNV-1" vertex="1">
          <mxGeometry x="670" y="840" width="120" height="90" as="geometry" />
        </mxCell>
        <mxCell id="MfT9FiDQWY_UEhDtYRqd-44" value="" style="edgeStyle=orthogonalEdgeStyle;rounded=0;orthogonalLoop=1;jettySize=auto;html=1;exitX=1;exitY=0.5;exitDx=0;exitDy=0;entryX=0.5;entryY=0;entryDx=0;entryDy=0;" parent="WIyWlLk6GJQsqaUBKTNV-1" source="MfT9FiDQWY_UEhDtYRqd-36" target="MfT9FiDQWY_UEhDtYRqd-41" edge="1">
          <mxGeometry relative="1" as="geometry" />
        </mxCell>
        <mxCell id="MfT9FiDQWY_UEhDtYRqd-46" value="Voronezhskay&#39; Oblast&#39;" style="edgeLabel;html=1;align=center;verticalAlign=middle;resizable=0;points=[];" parent="MfT9FiDQWY_UEhDtYRqd-44" vertex="1" connectable="0">
          <mxGeometry x="-0.0175" y="-4" relative="1" as="geometry">
            <mxPoint as="offset" />
          </mxGeometry>
        </mxCell>
        <mxCell id="HLICxz_2NMAobXMxXnJd-32" style="edgeStyle=orthogonalEdgeStyle;rounded=0;orthogonalLoop=1;jettySize=auto;html=1;exitX=0.5;exitY=1;exitDx=0;exitDy=0;" edge="1" parent="WIyWlLk6GJQsqaUBKTNV-1" source="TEwRUmldk3uiszt5Wf8D-2" target="HLICxz_2NMAobXMxXnJd-20">
          <mxGeometry relative="1" as="geometry" />
        </mxCell>
        <mxCell id="TEwRUmldk3uiszt5Wf8D-2" value="while health!&amp;lt;0 &amp;amp;&amp;amp; mood!&amp;lt;0" style="rhombus;whiteSpace=wrap;html=1;" parent="WIyWlLk6GJQsqaUBKTNV-1" vertex="1">
          <mxGeometry x="-1375" y="980" width="180" height="60" as="geometry" />
        </mxCell>
        <mxCell id="HLICxz_2NMAobXMxXnJd-45" style="edgeStyle=orthogonalEdgeStyle;rounded=0;orthogonalLoop=1;jettySize=auto;html=1;exitX=0.5;exitY=1;exitDx=0;exitDy=0;" edge="1" parent="WIyWlLk6GJQsqaUBKTNV-1" source="TEwRUmldk3uiszt5Wf8D-3" target="HLICxz_2NMAobXMxXnJd-33">
          <mxGeometry relative="1" as="geometry" />
        </mxCell>
        <mxCell id="TEwRUmldk3uiszt5Wf8D-3" value="while health!&amp;lt;0 &amp;amp;&amp;amp; mood!&amp;lt;0" style="rhombus;whiteSpace=wrap;html=1;" parent="WIyWlLk6GJQsqaUBKTNV-1" vertex="1">
          <mxGeometry x="-1845" y="980" width="180" height="60" as="geometry" />
        </mxCell>
        <mxCell id="TEwRUmldk3uiszt5Wf8D-9" value="true" style="edgeStyle=orthogonalEdgeStyle;rounded=0;orthogonalLoop=1;jettySize=auto;html=1;exitX=0.5;exitY=1;exitDx=0;exitDy=0;" parent="WIyWlLk6GJQsqaUBKTNV-1" source="TEwRUmldk3uiszt5Wf8D-4" target="HLICxz_2NMAobXMxXnJd-2" edge="1">
          <mxGeometry relative="1" as="geometry">
            <mxPoint x="-760" y="1139" as="targetPoint" />
            <Array as="points">
              <mxPoint x="-760" y="1140" />
              <mxPoint x="-760" y="1140" />
            </Array>
          </mxGeometry>
        </mxCell>
        <mxCell id="HLICxz_2NMAobXMxXnJd-0" value="f" style="edgeStyle=orthogonalEdgeStyle;rounded=0;orthogonalLoop=1;jettySize=auto;html=1;exitX=1;exitY=0.5;exitDx=0;exitDy=0;entryX=1;entryY=0.5;entryDx=0;entryDy=0;" edge="1" parent="WIyWlLk6GJQsqaUBKTNV-1" source="TEwRUmldk3uiszt5Wf8D-4" target="MfT9FiDQWY_UEhDtYRqd-1">
          <mxGeometry relative="1" as="geometry">
            <Array as="points">
              <mxPoint x="-560" y="1025" />
              <mxPoint x="-560" y="1900" />
            </Array>
          </mxGeometry>
        </mxCell>
        <mxCell id="HLICxz_2NMAobXMxXnJd-1" value="false" style="edgeLabel;html=1;align=center;verticalAlign=middle;resizable=0;points=[];" vertex="1" connectable="0" parent="HLICxz_2NMAobXMxXnJd-0">
          <mxGeometry x="-0.7452" y="2" relative="1" as="geometry">
            <mxPoint as="offset" />
          </mxGeometry>
        </mxCell>
        <mxCell id="TEwRUmldk3uiszt5Wf8D-4" value="&lt;div&gt;&lt;br&gt;&lt;/div&gt;&lt;span style=&quot;color: rgb(240, 240, 240); font-family: Helvetica; font-size: 12px; font-style: normal; font-variant-ligatures: normal; font-variant-caps: normal; font-weight: 400; letter-spacing: normal; orphans: 2; text-align: center; text-indent: 0px; text-transform: none; widows: 2; word-spacing: 0px; -webkit-text-stroke-width: 0px; white-space: normal; background-color: rgb(27, 29, 30); text-decoration-thickness: initial; text-decoration-style: initial; text-decoration-color: initial; display: inline !important; float: none;&quot;&gt;while health!&amp;lt;0 &amp;amp;&amp;amp; mood!&amp;lt;0&lt;/span&gt;&lt;div&gt;&lt;br&gt;&lt;/div&gt;" style="rhombus;whiteSpace=wrap;html=1;" parent="WIyWlLk6GJQsqaUBKTNV-1" vertex="1">
          <mxGeometry x="-850" y="979" width="180" height="91" as="geometry" />
        </mxCell>
        <mxCell id="HLICxz_2NMAobXMxXnJd-2" value="Sleep(10000)" style="rhombus;whiteSpace=wrap;html=1;" vertex="1" parent="WIyWlLk6GJQsqaUBKTNV-1">
          <mxGeometry x="-830" y="1160" width="140" height="80" as="geometry" />
        </mxCell>
        <mxCell id="HLICxz_2NMAobXMxXnJd-18" style="edgeStyle=orthogonalEdgeStyle;rounded=0;orthogonalLoop=1;jettySize=auto;html=1;exitX=0.5;exitY=1;exitDx=0;exitDy=0;entryX=0;entryY=0.5;entryDx=0;entryDy=0;" edge="1" parent="WIyWlLk6GJQsqaUBKTNV-1" source="HLICxz_2NMAobXMxXnJd-5" target="HLICxz_2NMAobXMxXnJd-2">
          <mxGeometry relative="1" as="geometry">
            <Array as="points">
              <mxPoint x="-650" y="1560" />
              <mxPoint x="-990" y="1560" />
              <mxPoint x="-990" y="1200" />
            </Array>
          </mxGeometry>
        </mxCell>
        <mxCell id="HLICxz_2NMAobXMxXnJd-5" value="Health-=10;&lt;div&gt;Mood-=7;&lt;/div&gt;" style="rounded=1;whiteSpace=wrap;html=1;" vertex="1" parent="WIyWlLk6GJQsqaUBKTNV-1">
          <mxGeometry x="-710" y="1330" width="120" height="60" as="geometry" />
        </mxCell>
        <mxCell id="HLICxz_2NMAobXMxXnJd-17" style="edgeStyle=orthogonalEdgeStyle;rounded=0;orthogonalLoop=1;jettySize=auto;html=1;exitX=0.5;exitY=1;exitDx=0;exitDy=0;entryX=0.5;entryY=0;entryDx=0;entryDy=0;" edge="1" parent="WIyWlLk6GJQsqaUBKTNV-1" source="HLICxz_2NMAobXMxXnJd-9" target="HLICxz_2NMAobXMxXnJd-14">
          <mxGeometry relative="1" as="geometry" />
        </mxCell>
        <mxCell id="HLICxz_2NMAobXMxXnJd-9" value="switch" style="rounded=1;whiteSpace=wrap;html=1;" vertex="1" parent="WIyWlLk6GJQsqaUBKTNV-1">
          <mxGeometry x="-940" y="1330" width="120" height="30" as="geometry" />
        </mxCell>
        <mxCell id="HLICxz_2NMAobXMxXnJd-11" value="" style="edgeStyle=orthogonalEdgeStyle;rounded=0;orthogonalLoop=1;jettySize=auto;html=1;exitX=0.5;exitY=1;exitDx=0;exitDy=0;entryX=0.5;entryY=0;entryDx=0;entryDy=0;" edge="1" parent="WIyWlLk6GJQsqaUBKTNV-1" source="HLICxz_2NMAobXMxXnJd-2" target="HLICxz_2NMAobXMxXnJd-10">
          <mxGeometry relative="1" as="geometry">
            <mxPoint x="-760" y="1240" as="sourcePoint" />
            <mxPoint x="-650" y="1330" as="targetPoint" />
          </mxGeometry>
        </mxCell>
        <mxCell id="HLICxz_2NMAobXMxXnJd-12" style="edgeStyle=orthogonalEdgeStyle;rounded=0;orthogonalLoop=1;jettySize=auto;html=1;exitX=1;exitY=0.5;exitDx=0;exitDy=0;" edge="1" parent="WIyWlLk6GJQsqaUBKTNV-1" source="HLICxz_2NMAobXMxXnJd-10" target="HLICxz_2NMAobXMxXnJd-5">
          <mxGeometry relative="1" as="geometry" />
        </mxCell>
        <mxCell id="HLICxz_2NMAobXMxXnJd-13" style="edgeStyle=orthogonalEdgeStyle;rounded=0;orthogonalLoop=1;jettySize=auto;html=1;exitX=0;exitY=0.5;exitDx=0;exitDy=0;entryX=0.5;entryY=0;entryDx=0;entryDy=0;" edge="1" parent="WIyWlLk6GJQsqaUBKTNV-1" source="HLICxz_2NMAobXMxXnJd-10" target="HLICxz_2NMAobXMxXnJd-9">
          <mxGeometry relative="1" as="geometry" />
        </mxCell>
        <mxCell id="HLICxz_2NMAobXMxXnJd-10" value="" style="rhombus;whiteSpace=wrap;html=1;" vertex="1" parent="WIyWlLk6GJQsqaUBKTNV-1">
          <mxGeometry x="-775" y="1270" width="30" height="30" as="geometry" />
        </mxCell>
        <mxCell id="HLICxz_2NMAobXMxXnJd-16" value="" style="edgeStyle=orthogonalEdgeStyle;rounded=0;orthogonalLoop=1;jettySize=auto;html=1;" edge="1" parent="WIyWlLk6GJQsqaUBKTNV-1" source="HLICxz_2NMAobXMxXnJd-14" target="HLICxz_2NMAobXMxXnJd-15">
          <mxGeometry relative="1" as="geometry" />
        </mxCell>
        <mxCell id="HLICxz_2NMAobXMxXnJd-14" value="case R:&amp;nbsp;&lt;div&gt;Health+=Rollback;&lt;/div&gt;" style="rounded=1;whiteSpace=wrap;html=1;" vertex="1" parent="WIyWlLk6GJQsqaUBKTNV-1">
          <mxGeometry x="-940" y="1390" width="120" height="40" as="geometry" />
        </mxCell>
        <mxCell id="HLICxz_2NMAobXMxXnJd-15" value="case B:&lt;div&gt;Mood+=Banya;&lt;/div&gt;" style="whiteSpace=wrap;html=1;rounded=1;" vertex="1" parent="WIyWlLk6GJQsqaUBKTNV-1">
          <mxGeometry x="-940" y="1460" width="120" height="40" as="geometry" />
        </mxCell>
        <mxCell id="HLICxz_2NMAobXMxXnJd-19" value="" style="edgeStyle=orthogonalEdgeStyle;rounded=0;orthogonalLoop=1;jettySize=auto;html=1;" edge="1" parent="WIyWlLk6GJQsqaUBKTNV-1" target="MfT9FiDQWY_UEhDtYRqd-24">
          <mxGeometry relative="1" as="geometry">
            <mxPoint x="-1285" y="760" as="sourcePoint" />
            <mxPoint x="-1285" y="850" as="targetPoint" />
          </mxGeometry>
        </mxCell>
        <mxCell id="MfT9FiDQWY_UEhDtYRqd-24" value="Chose Rod Voisk" style="rhombus;whiteSpace=wrap;html=1;" parent="WIyWlLk6GJQsqaUBKTNV-1" vertex="1">
          <mxGeometry x="-1365" y="720" width="160" height="40" as="geometry" />
        </mxCell>
        <mxCell id="HLICxz_2NMAobXMxXnJd-48" style="edgeStyle=orthogonalEdgeStyle;rounded=0;orthogonalLoop=1;jettySize=auto;html=1;exitX=1;exitY=0.5;exitDx=0;exitDy=0;entryX=0;entryY=0.5;entryDx=0;entryDy=0;" edge="1" parent="WIyWlLk6GJQsqaUBKTNV-1" source="HLICxz_2NMAobXMxXnJd-20" target="MfT9FiDQWY_UEhDtYRqd-1">
          <mxGeometry relative="1" as="geometry" />
        </mxCell>
        <mxCell id="HLICxz_2NMAobXMxXnJd-20" value="Sleep(10000)" style="rhombus;whiteSpace=wrap;html=1;" vertex="1" parent="WIyWlLk6GJQsqaUBKTNV-1">
          <mxGeometry x="-1370" y="1160" width="140" height="80" as="geometry" />
        </mxCell>
        <mxCell id="HLICxz_2NMAobXMxXnJd-21" style="edgeStyle=orthogonalEdgeStyle;rounded=0;orthogonalLoop=1;jettySize=auto;html=1;exitX=0.5;exitY=1;exitDx=0;exitDy=0;entryX=0;entryY=0.5;entryDx=0;entryDy=0;" edge="1" parent="WIyWlLk6GJQsqaUBKTNV-1" source="HLICxz_2NMAobXMxXnJd-22" target="HLICxz_2NMAobXMxXnJd-20">
          <mxGeometry relative="1" as="geometry">
            <Array as="points">
              <mxPoint x="-1190" y="1560" />
              <mxPoint x="-1530" y="1560" />
              <mxPoint x="-1530" y="1200" />
            </Array>
          </mxGeometry>
        </mxCell>
        <mxCell id="HLICxz_2NMAobXMxXnJd-22" value="Health-=10;&lt;div&gt;Mood-=7;&lt;/div&gt;" style="rounded=1;whiteSpace=wrap;html=1;" vertex="1" parent="WIyWlLk6GJQsqaUBKTNV-1">
          <mxGeometry x="-1250" y="1330" width="120" height="60" as="geometry" />
        </mxCell>
        <mxCell id="HLICxz_2NMAobXMxXnJd-23" style="edgeStyle=orthogonalEdgeStyle;rounded=0;orthogonalLoop=1;jettySize=auto;html=1;exitX=0.5;exitY=1;exitDx=0;exitDy=0;entryX=0.5;entryY=0;entryDx=0;entryDy=0;" edge="1" parent="WIyWlLk6GJQsqaUBKTNV-1" source="HLICxz_2NMAobXMxXnJd-24" target="HLICxz_2NMAobXMxXnJd-30">
          <mxGeometry relative="1" as="geometry" />
        </mxCell>
        <mxCell id="HLICxz_2NMAobXMxXnJd-24" value="switch" style="rounded=1;whiteSpace=wrap;html=1;" vertex="1" parent="WIyWlLk6GJQsqaUBKTNV-1">
          <mxGeometry x="-1480" y="1330" width="120" height="30" as="geometry" />
        </mxCell>
        <mxCell id="HLICxz_2NMAobXMxXnJd-25" value="" style="edgeStyle=orthogonalEdgeStyle;rounded=0;orthogonalLoop=1;jettySize=auto;html=1;exitX=0.5;exitY=1;exitDx=0;exitDy=0;entryX=0.5;entryY=0;entryDx=0;entryDy=0;" edge="1" parent="WIyWlLk6GJQsqaUBKTNV-1" source="HLICxz_2NMAobXMxXnJd-20" target="HLICxz_2NMAobXMxXnJd-28">
          <mxGeometry relative="1" as="geometry">
            <mxPoint x="-1300" y="1240" as="sourcePoint" />
            <mxPoint x="-1190" y="1330" as="targetPoint" />
          </mxGeometry>
        </mxCell>
        <mxCell id="HLICxz_2NMAobXMxXnJd-26" style="edgeStyle=orthogonalEdgeStyle;rounded=0;orthogonalLoop=1;jettySize=auto;html=1;exitX=1;exitY=0.5;exitDx=0;exitDy=0;" edge="1" parent="WIyWlLk6GJQsqaUBKTNV-1" source="HLICxz_2NMAobXMxXnJd-28" target="HLICxz_2NMAobXMxXnJd-22">
          <mxGeometry relative="1" as="geometry" />
        </mxCell>
        <mxCell id="HLICxz_2NMAobXMxXnJd-27" style="edgeStyle=orthogonalEdgeStyle;rounded=0;orthogonalLoop=1;jettySize=auto;html=1;exitX=0;exitY=0.5;exitDx=0;exitDy=0;entryX=0.5;entryY=0;entryDx=0;entryDy=0;" edge="1" parent="WIyWlLk6GJQsqaUBKTNV-1" source="HLICxz_2NMAobXMxXnJd-28" target="HLICxz_2NMAobXMxXnJd-24">
          <mxGeometry relative="1" as="geometry" />
        </mxCell>
        <mxCell id="HLICxz_2NMAobXMxXnJd-28" value="" style="rhombus;whiteSpace=wrap;html=1;" vertex="1" parent="WIyWlLk6GJQsqaUBKTNV-1">
          <mxGeometry x="-1315" y="1270" width="30" height="30" as="geometry" />
        </mxCell>
        <mxCell id="HLICxz_2NMAobXMxXnJd-29" value="" style="edgeStyle=orthogonalEdgeStyle;rounded=0;orthogonalLoop=1;jettySize=auto;html=1;" edge="1" parent="WIyWlLk6GJQsqaUBKTNV-1" source="HLICxz_2NMAobXMxXnJd-30" target="HLICxz_2NMAobXMxXnJd-31">
          <mxGeometry relative="1" as="geometry" />
        </mxCell>
        <mxCell id="HLICxz_2NMAobXMxXnJd-30" value="case R:&amp;nbsp;&lt;div&gt;Health+=Rollback;&lt;/div&gt;" style="rounded=1;whiteSpace=wrap;html=1;" vertex="1" parent="WIyWlLk6GJQsqaUBKTNV-1">
          <mxGeometry x="-1480" y="1390" width="120" height="40" as="geometry" />
        </mxCell>
        <mxCell id="HLICxz_2NMAobXMxXnJd-31" value="case B:&lt;div&gt;Mood+=Banya;&lt;/div&gt;" style="whiteSpace=wrap;html=1;rounded=1;" vertex="1" parent="WIyWlLk6GJQsqaUBKTNV-1">
          <mxGeometry x="-1480" y="1460" width="120" height="40" as="geometry" />
        </mxCell>
        <mxCell id="HLICxz_2NMAobXMxXnJd-49" style="edgeStyle=orthogonalEdgeStyle;rounded=0;orthogonalLoop=1;jettySize=auto;html=1;exitX=1;exitY=0.5;exitDx=0;exitDy=0;" edge="1" parent="WIyWlLk6GJQsqaUBKTNV-1">
          <mxGeometry relative="1" as="geometry">
            <mxPoint x="-1045" y="1910" as="targetPoint" />
            <mxPoint x="-1695" y="1200" as="sourcePoint" />
            <Array as="points">
              <mxPoint x="-1575" y="1200" />
              <mxPoint x="-1575" y="1900" />
              <mxPoint x="-1044" y="1900" />
              <mxPoint x="-1044" y="1910" />
            </Array>
          </mxGeometry>
        </mxCell>
        <mxCell id="HLICxz_2NMAobXMxXnJd-33" value="Sleep(10000)" style="rhombus;whiteSpace=wrap;html=1;" vertex="1" parent="WIyWlLk6GJQsqaUBKTNV-1">
          <mxGeometry x="-1830" y="1160" width="140" height="80" as="geometry" />
        </mxCell>
        <mxCell id="HLICxz_2NMAobXMxXnJd-34" style="edgeStyle=orthogonalEdgeStyle;rounded=0;orthogonalLoop=1;jettySize=auto;html=1;exitX=0.5;exitY=1;exitDx=0;exitDy=0;entryX=0;entryY=0.5;entryDx=0;entryDy=0;" edge="1" parent="WIyWlLk6GJQsqaUBKTNV-1" source="HLICxz_2NMAobXMxXnJd-35" target="HLICxz_2NMAobXMxXnJd-33">
          <mxGeometry relative="1" as="geometry">
            <Array as="points">
              <mxPoint x="-1650" y="1560" />
              <mxPoint x="-1990" y="1560" />
              <mxPoint x="-1990" y="1200" />
            </Array>
          </mxGeometry>
        </mxCell>
        <mxCell id="HLICxz_2NMAobXMxXnJd-35" value="Health-=10;&lt;div&gt;Mood-=7;&lt;/div&gt;" style="rounded=1;whiteSpace=wrap;html=1;" vertex="1" parent="WIyWlLk6GJQsqaUBKTNV-1">
          <mxGeometry x="-1710" y="1330" width="120" height="60" as="geometry" />
        </mxCell>
        <mxCell id="HLICxz_2NMAobXMxXnJd-36" style="edgeStyle=orthogonalEdgeStyle;rounded=0;orthogonalLoop=1;jettySize=auto;html=1;exitX=0.5;exitY=1;exitDx=0;exitDy=0;entryX=0.5;entryY=0;entryDx=0;entryDy=0;" edge="1" parent="WIyWlLk6GJQsqaUBKTNV-1" source="HLICxz_2NMAobXMxXnJd-37" target="HLICxz_2NMAobXMxXnJd-43">
          <mxGeometry relative="1" as="geometry" />
        </mxCell>
        <mxCell id="HLICxz_2NMAobXMxXnJd-37" value="switch" style="rounded=1;whiteSpace=wrap;html=1;" vertex="1" parent="WIyWlLk6GJQsqaUBKTNV-1">
          <mxGeometry x="-1940" y="1330" width="120" height="30" as="geometry" />
        </mxCell>
        <mxCell id="HLICxz_2NMAobXMxXnJd-38" value="" style="edgeStyle=orthogonalEdgeStyle;rounded=0;orthogonalLoop=1;jettySize=auto;html=1;exitX=0.5;exitY=1;exitDx=0;exitDy=0;entryX=0.5;entryY=0;entryDx=0;entryDy=0;" edge="1" parent="WIyWlLk6GJQsqaUBKTNV-1" source="HLICxz_2NMAobXMxXnJd-33" target="HLICxz_2NMAobXMxXnJd-41">
          <mxGeometry relative="1" as="geometry">
            <mxPoint x="-1760" y="1240" as="sourcePoint" />
            <mxPoint x="-1650" y="1330" as="targetPoint" />
          </mxGeometry>
        </mxCell>
        <mxCell id="HLICxz_2NMAobXMxXnJd-39" style="edgeStyle=orthogonalEdgeStyle;rounded=0;orthogonalLoop=1;jettySize=auto;html=1;exitX=1;exitY=0.5;exitDx=0;exitDy=0;" edge="1" parent="WIyWlLk6GJQsqaUBKTNV-1" source="HLICxz_2NMAobXMxXnJd-41" target="HLICxz_2NMAobXMxXnJd-35">
          <mxGeometry relative="1" as="geometry" />
        </mxCell>
        <mxCell id="HLICxz_2NMAobXMxXnJd-40" style="edgeStyle=orthogonalEdgeStyle;rounded=0;orthogonalLoop=1;jettySize=auto;html=1;exitX=0;exitY=0.5;exitDx=0;exitDy=0;entryX=0.5;entryY=0;entryDx=0;entryDy=0;" edge="1" parent="WIyWlLk6GJQsqaUBKTNV-1" source="HLICxz_2NMAobXMxXnJd-41" target="HLICxz_2NMAobXMxXnJd-37">
          <mxGeometry relative="1" as="geometry" />
        </mxCell>
        <mxCell id="HLICxz_2NMAobXMxXnJd-41" value="" style="rhombus;whiteSpace=wrap;html=1;" vertex="1" parent="WIyWlLk6GJQsqaUBKTNV-1">
          <mxGeometry x="-1775" y="1270" width="30" height="30" as="geometry" />
        </mxCell>
        <mxCell id="HLICxz_2NMAobXMxXnJd-42" value="" style="edgeStyle=orthogonalEdgeStyle;rounded=0;orthogonalLoop=1;jettySize=auto;html=1;" edge="1" parent="WIyWlLk6GJQsqaUBKTNV-1" source="HLICxz_2NMAobXMxXnJd-43" target="HLICxz_2NMAobXMxXnJd-44">
          <mxGeometry relative="1" as="geometry" />
        </mxCell>
        <mxCell id="HLICxz_2NMAobXMxXnJd-43" value="case R:&amp;nbsp;&lt;div&gt;Health+=Rollback;&lt;/div&gt;" style="rounded=1;whiteSpace=wrap;html=1;" vertex="1" parent="WIyWlLk6GJQsqaUBKTNV-1">
          <mxGeometry x="-1940" y="1390" width="120" height="40" as="geometry" />
        </mxCell>
        <mxCell id="HLICxz_2NMAobXMxXnJd-44" value="case B:&lt;div&gt;Mood+=Banya;&lt;/div&gt;" style="whiteSpace=wrap;html=1;rounded=1;" vertex="1" parent="WIyWlLk6GJQsqaUBKTNV-1">
          <mxGeometry x="-1940" y="1460" width="120" height="40" as="geometry" />
        </mxCell>
        <mxCell id="HLICxz_2NMAobXMxXnJd-90" style="edgeStyle=orthogonalEdgeStyle;rounded=0;orthogonalLoop=1;jettySize=auto;html=1;exitX=1;exitY=0.5;exitDx=0;exitDy=0;entryX=1;entryY=0.5;entryDx=0;entryDy=0;" edge="1" parent="WIyWlLk6GJQsqaUBKTNV-1" source="HLICxz_2NMAobXMxXnJd-50" target="MfT9FiDQWY_UEhDtYRqd-1">
          <mxGeometry relative="1" as="geometry" />
        </mxCell>
        <mxCell id="HLICxz_2NMAobXMxXnJd-50" value="Sleep(10000)" style="rhombus;whiteSpace=wrap;html=1;" vertex="1" parent="WIyWlLk6GJQsqaUBKTNV-1">
          <mxGeometry x="-270" y="970" width="140" height="80" as="geometry" />
        </mxCell>
        <mxCell id="HLICxz_2NMAobXMxXnJd-51" style="edgeStyle=orthogonalEdgeStyle;rounded=0;orthogonalLoop=1;jettySize=auto;html=1;exitX=0.5;exitY=1;exitDx=0;exitDy=0;entryX=0;entryY=0.5;entryDx=0;entryDy=0;" edge="1" parent="WIyWlLk6GJQsqaUBKTNV-1" source="HLICxz_2NMAobXMxXnJd-52" target="HLICxz_2NMAobXMxXnJd-50">
          <mxGeometry relative="1" as="geometry">
            <Array as="points">
              <mxPoint x="-90" y="1370" />
              <mxPoint x="-430" y="1370" />
              <mxPoint x="-430" y="1010" />
            </Array>
          </mxGeometry>
        </mxCell>
        <mxCell id="HLICxz_2NMAobXMxXnJd-52" value="Health-=10;&lt;div&gt;Mood-=7;&lt;/div&gt;" style="rounded=1;whiteSpace=wrap;html=1;" vertex="1" parent="WIyWlLk6GJQsqaUBKTNV-1">
          <mxGeometry x="-150" y="1140" width="120" height="60" as="geometry" />
        </mxCell>
        <mxCell id="HLICxz_2NMAobXMxXnJd-53" style="edgeStyle=orthogonalEdgeStyle;rounded=0;orthogonalLoop=1;jettySize=auto;html=1;exitX=0.5;exitY=1;exitDx=0;exitDy=0;entryX=0.5;entryY=0;entryDx=0;entryDy=0;" edge="1" parent="WIyWlLk6GJQsqaUBKTNV-1" source="HLICxz_2NMAobXMxXnJd-54" target="HLICxz_2NMAobXMxXnJd-60">
          <mxGeometry relative="1" as="geometry" />
        </mxCell>
        <mxCell id="HLICxz_2NMAobXMxXnJd-54" value="switch" style="rounded=1;whiteSpace=wrap;html=1;" vertex="1" parent="WIyWlLk6GJQsqaUBKTNV-1">
          <mxGeometry x="-380" y="1140" width="120" height="30" as="geometry" />
        </mxCell>
        <mxCell id="HLICxz_2NMAobXMxXnJd-55" value="" style="edgeStyle=orthogonalEdgeStyle;rounded=0;orthogonalLoop=1;jettySize=auto;html=1;exitX=0.5;exitY=1;exitDx=0;exitDy=0;entryX=0.5;entryY=0;entryDx=0;entryDy=0;" edge="1" parent="WIyWlLk6GJQsqaUBKTNV-1" source="HLICxz_2NMAobXMxXnJd-50" target="HLICxz_2NMAobXMxXnJd-58">
          <mxGeometry relative="1" as="geometry">
            <mxPoint x="-200" y="1050" as="sourcePoint" />
            <mxPoint x="-90" y="1140" as="targetPoint" />
          </mxGeometry>
        </mxCell>
        <mxCell id="HLICxz_2NMAobXMxXnJd-56" style="edgeStyle=orthogonalEdgeStyle;rounded=0;orthogonalLoop=1;jettySize=auto;html=1;exitX=1;exitY=0.5;exitDx=0;exitDy=0;" edge="1" parent="WIyWlLk6GJQsqaUBKTNV-1" source="HLICxz_2NMAobXMxXnJd-58" target="HLICxz_2NMAobXMxXnJd-52">
          <mxGeometry relative="1" as="geometry" />
        </mxCell>
        <mxCell id="HLICxz_2NMAobXMxXnJd-57" style="edgeStyle=orthogonalEdgeStyle;rounded=0;orthogonalLoop=1;jettySize=auto;html=1;exitX=0;exitY=0.5;exitDx=0;exitDy=0;entryX=0.5;entryY=0;entryDx=0;entryDy=0;" edge="1" parent="WIyWlLk6GJQsqaUBKTNV-1" source="HLICxz_2NMAobXMxXnJd-58" target="HLICxz_2NMAobXMxXnJd-54">
          <mxGeometry relative="1" as="geometry" />
        </mxCell>
        <mxCell id="HLICxz_2NMAobXMxXnJd-58" value="" style="rhombus;whiteSpace=wrap;html=1;" vertex="1" parent="WIyWlLk6GJQsqaUBKTNV-1">
          <mxGeometry x="-215" y="1080" width="30" height="30" as="geometry" />
        </mxCell>
        <mxCell id="HLICxz_2NMAobXMxXnJd-59" value="" style="edgeStyle=orthogonalEdgeStyle;rounded=0;orthogonalLoop=1;jettySize=auto;html=1;" edge="1" parent="WIyWlLk6GJQsqaUBKTNV-1" source="HLICxz_2NMAobXMxXnJd-60" target="HLICxz_2NMAobXMxXnJd-61">
          <mxGeometry relative="1" as="geometry" />
        </mxCell>
        <mxCell id="HLICxz_2NMAobXMxXnJd-60" value="case R:&amp;nbsp;&lt;div&gt;Health+=Rollback;&lt;/div&gt;" style="rounded=1;whiteSpace=wrap;html=1;" vertex="1" parent="WIyWlLk6GJQsqaUBKTNV-1">
          <mxGeometry x="-380" y="1200" width="120" height="40" as="geometry" />
        </mxCell>
        <mxCell id="HLICxz_2NMAobXMxXnJd-61" value="case B:&lt;div&gt;Mood+=Banya;&lt;/div&gt;" style="whiteSpace=wrap;html=1;rounded=1;" vertex="1" parent="WIyWlLk6GJQsqaUBKTNV-1">
          <mxGeometry x="-380" y="1270" width="120" height="40" as="geometry" />
        </mxCell>
        <mxCell id="HLICxz_2NMAobXMxXnJd-91" style="edgeStyle=orthogonalEdgeStyle;rounded=0;orthogonalLoop=1;jettySize=auto;html=1;exitX=1;exitY=0.5;exitDx=0;exitDy=0;" edge="1" parent="WIyWlLk6GJQsqaUBKTNV-1" source="HLICxz_2NMAobXMxXnJd-63">
          <mxGeometry relative="1" as="geometry">
            <mxPoint x="-920" y="1899.9999999999995" as="targetPoint" />
            <Array as="points">
              <mxPoint x="330" y="1010" />
              <mxPoint x="330" y="1900" />
            </Array>
          </mxGeometry>
        </mxCell>
        <mxCell id="HLICxz_2NMAobXMxXnJd-63" value="Sleep(10000)" style="rhombus;whiteSpace=wrap;html=1;" vertex="1" parent="WIyWlLk6GJQsqaUBKTNV-1">
          <mxGeometry x="170" y="970" width="140" height="80" as="geometry" />
        </mxCell>
        <mxCell id="HLICxz_2NMAobXMxXnJd-64" style="edgeStyle=orthogonalEdgeStyle;rounded=0;orthogonalLoop=1;jettySize=auto;html=1;exitX=0.5;exitY=1;exitDx=0;exitDy=0;entryX=0;entryY=0.5;entryDx=0;entryDy=0;" edge="1" parent="WIyWlLk6GJQsqaUBKTNV-1" source="HLICxz_2NMAobXMxXnJd-65" target="HLICxz_2NMAobXMxXnJd-63">
          <mxGeometry relative="1" as="geometry">
            <Array as="points">
              <mxPoint x="350" y="1370" />
              <mxPoint x="10" y="1370" />
              <mxPoint x="10" y="1010" />
            </Array>
          </mxGeometry>
        </mxCell>
        <mxCell id="HLICxz_2NMAobXMxXnJd-65" value="Health-=10;&lt;div&gt;Mood-=7;&lt;/div&gt;" style="rounded=1;whiteSpace=wrap;html=1;" vertex="1" parent="WIyWlLk6GJQsqaUBKTNV-1">
          <mxGeometry x="290" y="1140" width="120" height="60" as="geometry" />
        </mxCell>
        <mxCell id="HLICxz_2NMAobXMxXnJd-66" style="edgeStyle=orthogonalEdgeStyle;rounded=0;orthogonalLoop=1;jettySize=auto;html=1;exitX=0.5;exitY=1;exitDx=0;exitDy=0;entryX=0.5;entryY=0;entryDx=0;entryDy=0;" edge="1" parent="WIyWlLk6GJQsqaUBKTNV-1" source="HLICxz_2NMAobXMxXnJd-67" target="HLICxz_2NMAobXMxXnJd-73">
          <mxGeometry relative="1" as="geometry" />
        </mxCell>
        <mxCell id="HLICxz_2NMAobXMxXnJd-67" value="switch" style="rounded=1;whiteSpace=wrap;html=1;" vertex="1" parent="WIyWlLk6GJQsqaUBKTNV-1">
          <mxGeometry x="60" y="1140" width="120" height="30" as="geometry" />
        </mxCell>
        <mxCell id="HLICxz_2NMAobXMxXnJd-68" value="" style="edgeStyle=orthogonalEdgeStyle;rounded=0;orthogonalLoop=1;jettySize=auto;html=1;exitX=0.5;exitY=1;exitDx=0;exitDy=0;entryX=0.5;entryY=0;entryDx=0;entryDy=0;" edge="1" parent="WIyWlLk6GJQsqaUBKTNV-1" source="HLICxz_2NMAobXMxXnJd-63" target="HLICxz_2NMAobXMxXnJd-71">
          <mxGeometry relative="1" as="geometry">
            <mxPoint x="240" y="1050" as="sourcePoint" />
            <mxPoint x="350" y="1140" as="targetPoint" />
          </mxGeometry>
        </mxCell>
        <mxCell id="HLICxz_2NMAobXMxXnJd-69" style="edgeStyle=orthogonalEdgeStyle;rounded=0;orthogonalLoop=1;jettySize=auto;html=1;exitX=1;exitY=0.5;exitDx=0;exitDy=0;" edge="1" parent="WIyWlLk6GJQsqaUBKTNV-1" source="HLICxz_2NMAobXMxXnJd-71" target="HLICxz_2NMAobXMxXnJd-65">
          <mxGeometry relative="1" as="geometry" />
        </mxCell>
        <mxCell id="HLICxz_2NMAobXMxXnJd-70" style="edgeStyle=orthogonalEdgeStyle;rounded=0;orthogonalLoop=1;jettySize=auto;html=1;exitX=0;exitY=0.5;exitDx=0;exitDy=0;entryX=0.5;entryY=0;entryDx=0;entryDy=0;" edge="1" parent="WIyWlLk6GJQsqaUBKTNV-1" source="HLICxz_2NMAobXMxXnJd-71" target="HLICxz_2NMAobXMxXnJd-67">
          <mxGeometry relative="1" as="geometry" />
        </mxCell>
        <mxCell id="HLICxz_2NMAobXMxXnJd-71" value="" style="rhombus;whiteSpace=wrap;html=1;" vertex="1" parent="WIyWlLk6GJQsqaUBKTNV-1">
          <mxGeometry x="225" y="1080" width="30" height="30" as="geometry" />
        </mxCell>
        <mxCell id="HLICxz_2NMAobXMxXnJd-72" value="" style="edgeStyle=orthogonalEdgeStyle;rounded=0;orthogonalLoop=1;jettySize=auto;html=1;" edge="1" parent="WIyWlLk6GJQsqaUBKTNV-1" source="HLICxz_2NMAobXMxXnJd-73" target="HLICxz_2NMAobXMxXnJd-74">
          <mxGeometry relative="1" as="geometry" />
        </mxCell>
        <mxCell id="HLICxz_2NMAobXMxXnJd-73" value="case R:&amp;nbsp;&lt;div&gt;Health+=Rollback;&lt;/div&gt;" style="rounded=1;whiteSpace=wrap;html=1;" vertex="1" parent="WIyWlLk6GJQsqaUBKTNV-1">
          <mxGeometry x="60" y="1200" width="120" height="40" as="geometry" />
        </mxCell>
        <mxCell id="HLICxz_2NMAobXMxXnJd-74" value="case B:&lt;div&gt;Mood+=Banya;&lt;/div&gt;" style="whiteSpace=wrap;html=1;rounded=1;" vertex="1" parent="WIyWlLk6GJQsqaUBKTNV-1">
          <mxGeometry x="60" y="1270" width="120" height="40" as="geometry" />
        </mxCell>
        <mxCell id="HLICxz_2NMAobXMxXnJd-92" style="edgeStyle=orthogonalEdgeStyle;rounded=0;orthogonalLoop=1;jettySize=auto;html=1;exitX=1;exitY=0.5;exitDx=0;exitDy=0;entryX=1;entryY=0.5;entryDx=0;entryDy=0;" edge="1" parent="WIyWlLk6GJQsqaUBKTNV-1" source="HLICxz_2NMAobXMxXnJd-76" target="MfT9FiDQWY_UEhDtYRqd-1">
          <mxGeometry relative="1" as="geometry">
            <Array as="points">
              <mxPoint x="960" y="1010" />
              <mxPoint x="960" y="1900" />
            </Array>
          </mxGeometry>
        </mxCell>
        <mxCell id="HLICxz_2NMAobXMxXnJd-76" value="Sleep(10000)" style="rhombus;whiteSpace=wrap;html=1;" vertex="1" parent="WIyWlLk6GJQsqaUBKTNV-1">
          <mxGeometry x="660" y="970" width="140" height="80" as="geometry" />
        </mxCell>
        <mxCell id="HLICxz_2NMAobXMxXnJd-77" style="edgeStyle=orthogonalEdgeStyle;rounded=0;orthogonalLoop=1;jettySize=auto;html=1;exitX=0.5;exitY=1;exitDx=0;exitDy=0;entryX=0;entryY=0.5;entryDx=0;entryDy=0;" edge="1" parent="WIyWlLk6GJQsqaUBKTNV-1" source="HLICxz_2NMAobXMxXnJd-78" target="HLICxz_2NMAobXMxXnJd-76">
          <mxGeometry relative="1" as="geometry">
            <Array as="points">
              <mxPoint x="840" y="1370" />
              <mxPoint x="500" y="1370" />
              <mxPoint x="500" y="1010" />
            </Array>
          </mxGeometry>
        </mxCell>
        <mxCell id="HLICxz_2NMAobXMxXnJd-78" value="Health-=10;&lt;div&gt;Mood-=7;&lt;/div&gt;" style="rounded=1;whiteSpace=wrap;html=1;" vertex="1" parent="WIyWlLk6GJQsqaUBKTNV-1">
          <mxGeometry x="780" y="1140" width="120" height="60" as="geometry" />
        </mxCell>
        <mxCell id="HLICxz_2NMAobXMxXnJd-79" style="edgeStyle=orthogonalEdgeStyle;rounded=0;orthogonalLoop=1;jettySize=auto;html=1;exitX=0.5;exitY=1;exitDx=0;exitDy=0;entryX=0.5;entryY=0;entryDx=0;entryDy=0;" edge="1" parent="WIyWlLk6GJQsqaUBKTNV-1" source="HLICxz_2NMAobXMxXnJd-80" target="HLICxz_2NMAobXMxXnJd-86">
          <mxGeometry relative="1" as="geometry" />
        </mxCell>
        <mxCell id="HLICxz_2NMAobXMxXnJd-80" value="switch" style="rounded=1;whiteSpace=wrap;html=1;" vertex="1" parent="WIyWlLk6GJQsqaUBKTNV-1">
          <mxGeometry x="550" y="1140" width="120" height="30" as="geometry" />
        </mxCell>
        <mxCell id="HLICxz_2NMAobXMxXnJd-81" value="" style="edgeStyle=orthogonalEdgeStyle;rounded=0;orthogonalLoop=1;jettySize=auto;html=1;exitX=0.5;exitY=1;exitDx=0;exitDy=0;entryX=0.5;entryY=0;entryDx=0;entryDy=0;" edge="1" parent="WIyWlLk6GJQsqaUBKTNV-1" source="HLICxz_2NMAobXMxXnJd-76" target="HLICxz_2NMAobXMxXnJd-84">
          <mxGeometry relative="1" as="geometry">
            <mxPoint x="730" y="1050" as="sourcePoint" />
            <mxPoint x="840" y="1140" as="targetPoint" />
          </mxGeometry>
        </mxCell>
        <mxCell id="HLICxz_2NMAobXMxXnJd-82" style="edgeStyle=orthogonalEdgeStyle;rounded=0;orthogonalLoop=1;jettySize=auto;html=1;exitX=1;exitY=0.5;exitDx=0;exitDy=0;" edge="1" parent="WIyWlLk6GJQsqaUBKTNV-1" source="HLICxz_2NMAobXMxXnJd-84" target="HLICxz_2NMAobXMxXnJd-78">
          <mxGeometry relative="1" as="geometry" />
        </mxCell>
        <mxCell id="HLICxz_2NMAobXMxXnJd-83" style="edgeStyle=orthogonalEdgeStyle;rounded=0;orthogonalLoop=1;jettySize=auto;html=1;exitX=0;exitY=0.5;exitDx=0;exitDy=0;entryX=0.5;entryY=0;entryDx=0;entryDy=0;" edge="1" parent="WIyWlLk6GJQsqaUBKTNV-1" source="HLICxz_2NMAobXMxXnJd-84" target="HLICxz_2NMAobXMxXnJd-80">
          <mxGeometry relative="1" as="geometry" />
        </mxCell>
        <mxCell id="HLICxz_2NMAobXMxXnJd-84" value="" style="rhombus;whiteSpace=wrap;html=1;" vertex="1" parent="WIyWlLk6GJQsqaUBKTNV-1">
          <mxGeometry x="715" y="1080" width="30" height="30" as="geometry" />
        </mxCell>
        <mxCell id="HLICxz_2NMAobXMxXnJd-85" value="" style="edgeStyle=orthogonalEdgeStyle;rounded=0;orthogonalLoop=1;jettySize=auto;html=1;" edge="1" parent="WIyWlLk6GJQsqaUBKTNV-1" source="HLICxz_2NMAobXMxXnJd-86" target="HLICxz_2NMAobXMxXnJd-87">
          <mxGeometry relative="1" as="geometry" />
        </mxCell>
        <mxCell id="HLICxz_2NMAobXMxXnJd-86" value="case R:&amp;nbsp;&lt;div&gt;Health+=Rollback;&lt;/div&gt;" style="rounded=1;whiteSpace=wrap;html=1;" vertex="1" parent="WIyWlLk6GJQsqaUBKTNV-1">
          <mxGeometry x="550" y="1200" width="120" height="40" as="geometry" />
        </mxCell>
        <mxCell id="HLICxz_2NMAobXMxXnJd-87" value="case B:&lt;div&gt;Mood+=Banya;&lt;/div&gt;" style="whiteSpace=wrap;html=1;rounded=1;" vertex="1" parent="WIyWlLk6GJQsqaUBKTNV-1">
          <mxGeometry x="550" y="1270" width="120" height="40" as="geometry" />
        </mxCell>
      </root>
    </mxGraphModel>
  </diagram>
</mxfile>
